<svg width="24" height="24" viewBox="0 0 24 24" fill="none" xmlns="http://www.w3.org/2000/svg">
<path d="M20 0C22.2091 0 24 1.79086 24 4V20C24 22.2091 22.2091 24 20 24H4C1.79086 24 0 22.2091 0 20V4C2.57702e-07 1.79086 1.79086 0 4 0H20ZM17.1045 9.0752C15.1787 9.0752 13.8496 9.97076 13.8496 11.583C13.8497 13.1653 15.1785 13.6583 16.3877 14.0166C17.0143 14.2106 17.3426 14.3296 17.3428 14.6279C17.3428 14.8965 17.1042 15.0458 16.582 15.0459C15.8207 15.0459 14.716 14.7177 13.9248 14.1953L13.9092 16.5088C14.7153 16.9566 15.7011 17.1357 16.7461 17.1357C18.7312 17.1356 19.9998 16.0912 20 14.5391C20 12.9119 18.8356 12.4639 17.4473 12.0459C16.7309 11.822 16.4923 11.7471 16.4922 11.4785C16.4922 11.2546 16.6861 11.1055 17.1787 11.1055C17.8505 11.1055 18.8808 11.3886 19.4033 11.7021L19.418 9.49316C18.7613 9.20954 18.0149 9.07524 17.1045 9.0752ZM5 7V17.002H7.77734V14.1953H9.15039C11.1807 14.1953 13.3457 13.1502 13.3457 10.5527C13.3456 8.32866 11.7481 7.00015 8.91211 7H5ZM9.06055 9.37402C9.94121 9.37402 10.4491 9.8213 10.4492 10.6123C10.4492 11.4781 9.85188 11.8213 9.00098 11.8213H7.77734V9.37402H9.06055Z" fill="white"/>
</svg>
